<?xml version="1.0" ?><svg data-name="Layer 1" height="200" id="Layer_1" viewBox="0 0 200 200" width="200" xmlns="http://www.w3.org/2000/svg"><title/><path d="M100,18.54C45,18.54,10,52,10,93s35,74.5,90,74.5c9.5,0,22.5-1.5,30-4L159,180c6.5,4,15-1,15-8.5v-36c.5-.5.5-1,1-1,10-15,15-22.5,15-41.5C190,52,155,18.54,100,18.54Zm67.5,89a168.37,168.37,0,0,1-10,17c-2,3.5-3.5,7-3.5,11v19L140,146a18.22,18.22,0,0,0-16-1.5c-4.5,1.5-15,2.5-23.5,2.5-47,0-70-27-70-54.5-.5-27,22.5-54,69.5-54s70,27,70,54.5c0,7.5-1,11-2.5,14.5ZM85,93.54a15,15,0,1,0,15-15A15,15,0,0,0,85,93.54Zm-40,0a15,15,0,1,0,30,0h0a15,15,0,0,0-30,0Zm80,0a15,15,0,0,0,30,0v0a15,15,0,1,0-30,0Z"/></svg>